<svg xmlns="http://www.w3.org/2000/svg" width="183.425" height="39.105" viewBox="0 0 183.425 39.105">
  <g id="Group_2" data-name="Group 2" transform="translate(-106 -488)">
    <g id="Group_1" data-name="Group 1">
      <path id="Path_1" data-name="Path 1" d="M6.063,3A2.859,2.859,0,0,0,3,5.774V20.11A2.95,2.95,0,0,0,6.063,23,2.843,2.843,0,0,0,9,20.11V5.774A2.755,2.755,0,0,0,6.063,3Z" transform="translate(103 485)" fill="#378739"/>
      <path id="Path_2" data-name="Path 2" d="M15.3,6.23A2.888,2.888,0,0,0,12.24,9.074V26.266A2.984,2.984,0,0,0,15.3,29.23a2.879,2.879,0,0,0,2.937-2.964V9.074A2.782,2.782,0,0,0,15.3,6.23Z" transform="translate(107 484.929)" fill="#378739"/>
      <path id="Path_3" data-name="Path 3" d="M33.24,12.817A3.528,3.528,0,0,0,29.735,9.1H23.892a3.647,3.647,0,0,0-3.652,3.712,3.519,3.519,0,0,0,3.579,3.562V39.393c0,2.081,1.345,3.712,3.057,3.712s2.932-1.632,2.932-3.712V16.379A3.407,3.407,0,0,0,33.24,12.817Z" transform="translate(110 484)" fill="#378739"/>
    </g>
    <path id="Path_4" data-name="Path 4" d="M45.205,16.519h.657v-3.57q0-1.437.066-2.242a3.44,3.44,0,0,1,.438-1.415,2.609,2.609,0,0,1,1.007-.98,2.808,2.808,0,0,1,1.467-.392A2.961,2.961,0,0,1,50.9,8.77a2.456,2.456,0,0,1,.766,1.393,11.542,11.542,0,0,1,.175,2.307v4.049h2.189a2.736,2.736,0,0,1,1.926.61,1.921,1.921,0,0,1,.679,1.524,1.714,1.714,0,0,1-.963,1.676,6.137,6.137,0,0,1-2.715.479H51.839V31.735a20.161,20.161,0,0,0,.088,2.155,2.333,2.333,0,0,0,.525,1.219,1.867,1.867,0,0,0,1.4.457,7.921,7.921,0,0,0,1.423-.174,7.037,7.037,0,0,1,1.4-.2,1.755,1.755,0,0,1,1.292.588A1.878,1.878,0,0,1,58.56,37.2a2.386,2.386,0,0,1-1.576,2.2,10.707,10.707,0,0,1-4.532.762,7.866,7.866,0,0,1-4.247-.936,4.392,4.392,0,0,1-1.9-2.59,17.9,17.9,0,0,1-.438-4.419V20.808h-.788a2.857,2.857,0,0,1-1.97-.61,1.987,1.987,0,0,1-.679-1.545,1.9,1.9,0,0,1,.7-1.524A3.141,3.141,0,0,1,45.205,16.519ZM75.877,36.807a18.772,18.772,0,0,1-4.2,2.525,11.832,11.832,0,0,1-4.532.827,8.8,8.8,0,0,1-4.05-.893,6.725,6.725,0,0,1-2.671-2.46,6.328,6.328,0,0,1-.941-3.352A5.981,5.981,0,0,1,61.034,29.3,7.785,7.785,0,0,1,65.3,26.99q.569-.131,2.824-.588t3.853-.827q1.62-.392,3.5-.936A6.048,6.048,0,0,0,74.52,21.2q-.832-1.11-3.481-1.11a7.384,7.384,0,0,0-3.437.631,5.67,5.67,0,0,0-1.97,1.894,18.675,18.675,0,0,1-1.16,1.676,1.905,1.905,0,0,1-1.445.392,2.623,2.623,0,0,1-1.751-.631,2.133,2.133,0,0,1-.722-1.654,5.009,5.009,0,0,1,1.117-3.048,7.982,7.982,0,0,1,3.481-2.438,15.764,15.764,0,0,1,5.889-.958,16.579,16.579,0,0,1,6.2.936,5.659,5.659,0,0,1,3.174,2.917,12.607,12.607,0,0,1,.941,5.311q0,2.09-.022,3.548,0,1.458-.022,3.244a12.217,12.217,0,0,0,.547,3.5,10.664,10.664,0,0,1,.569,2.329,2.208,2.208,0,0,1-.876,1.676,2.892,2.892,0,0,1-1.948.74,2.664,2.664,0,0,1-1.817-.849A13.114,13.114,0,0,1,75.877,36.807Zm-.394-8.6a31.059,31.059,0,0,1-3.831,1.023q-2.5.522-3.459.784a4.551,4.551,0,0,0-1.839.98,2.471,2.471,0,0,0-.876,2.024,3.04,3.04,0,0,0,1.029,2.307,3.847,3.847,0,0,0,2.693.936,7.055,7.055,0,0,0,3.262-.762,5.23,5.23,0,0,0,2.211-2,9.054,9.054,0,0,0,.81-4.441ZM92.341,10.555v9.077a13.635,13.635,0,0,1,3.437-2.656,9.112,9.112,0,0,1,4.335-.936,9.526,9.526,0,0,1,5.211,1.415,9.068,9.068,0,0,1,3.481,4.07,14.728,14.728,0,0,1,1.248,6.313,16.723,16.723,0,0,1-.7,4.963,11.6,11.6,0,0,1-1.992,3.9,9.124,9.124,0,0,1-3.2,2.569,9.394,9.394,0,0,1-4.116.893,10.087,10.087,0,0,1-2.605-.326,7.887,7.887,0,0,1-2.058-.849,10.4,10.4,0,0,1-1.467-1.11q-.591-.566-1.576-1.7v.588a3.61,3.61,0,0,1-.81,2.547,2.721,2.721,0,0,1-2.058.849,2.609,2.609,0,0,1-2.036-.849,3.821,3.821,0,0,1-.744-2.547V10.816A4.332,4.332,0,0,1,87.415,8.1a2.484,2.484,0,0,1,2.058-.936,2.61,2.61,0,0,1,2.124.892A3.747,3.747,0,0,1,92.341,10.555Zm.285,17.654a8.23,8.23,0,0,0,1.62,5.464,5.408,5.408,0,0,0,4.291,1.894,4.9,4.9,0,0,0,3.875-1.937,8.482,8.482,0,0,0,1.642-5.594,10.894,10.894,0,0,0-.679-4.049,5.811,5.811,0,0,0-1.927-2.612,4.719,4.719,0,0,0-2.912-.936,5.173,5.173,0,0,0-3.043.936,6.07,6.07,0,0,0-2.1,2.678A10.273,10.273,0,0,0,92.626,28.209Zm27.125-17.654v9.077a13.63,13.63,0,0,1,3.437-2.656,9.111,9.111,0,0,1,4.335-.936,9.529,9.529,0,0,1,5.211,1.415,9.076,9.076,0,0,1,3.481,4.07,14.742,14.742,0,0,1,1.248,6.313,16.747,16.747,0,0,1-.7,4.963,11.6,11.6,0,0,1-1.992,3.9,9.122,9.122,0,0,1-3.2,2.569,9.393,9.393,0,0,1-4.116.893,10.085,10.085,0,0,1-2.605-.326,7.89,7.89,0,0,1-2.058-.849,10.394,10.394,0,0,1-1.467-1.11q-.591-.566-1.576-1.7v.588a3.611,3.611,0,0,1-.81,2.547,2.721,2.721,0,0,1-2.058.849,2.609,2.609,0,0,1-2.036-.849,3.821,3.821,0,0,1-.744-2.547V10.816a4.331,4.331,0,0,1,.722-2.721,2.484,2.484,0,0,1,2.058-.936,2.61,2.61,0,0,1,2.124.892A3.746,3.746,0,0,1,119.751,10.555Zm.285,17.654a8.23,8.23,0,0,0,1.62,5.464,5.408,5.408,0,0,0,4.291,1.894,4.9,4.9,0,0,0,3.875-1.937,8.477,8.477,0,0,0,1.643-5.594,10.885,10.885,0,0,0-.679-4.049,5.82,5.82,0,0,0-1.926-2.612,4.72,4.72,0,0,0-2.912-.936,5.173,5.173,0,0,0-3.043.936,6.07,6.07,0,0,0-2.1,2.678A10.273,10.273,0,0,0,120.036,28.209Zm21.609,8.337V10.773a4.028,4.028,0,0,1,.788-2.7,2.752,2.752,0,0,1,2.167-.914,2.818,2.818,0,0,1,2.19.914,3.838,3.838,0,0,1,.832,2.7V36.546a3.855,3.855,0,0,1-.855,2.721,2.825,2.825,0,0,1-2.167.893,2.737,2.737,0,0,1-2.145-.936A3.966,3.966,0,0,1,141.645,36.546ZM170.5,29.537h-11.69a7.942,7.942,0,0,0,.81,3.57,5.5,5.5,0,0,0,5.058,3.113,7.375,7.375,0,0,0,1.947-.239,6.829,6.829,0,0,0,1.731-.784,13.988,13.988,0,0,0,1.532-1.154q.7-.609,1.817-1.654A1.969,1.969,0,0,1,173.017,32a2.172,2.172,0,0,1,1.489.5,1.784,1.784,0,0,1,.569,1.415,3.912,3.912,0,0,1-.635,1.894,7.634,7.634,0,0,1-1.926,2.068,10.917,10.917,0,0,1-3.219,1.633,13.828,13.828,0,0,1-4.443.653q-5.757,0-8.954-3.265t-3.2-8.859a14.628,14.628,0,0,1,.788-4.876,10.772,10.772,0,0,1,2.3-3.875,9.859,9.859,0,0,1,3.723-2.46,13.277,13.277,0,0,1,4.9-.871,11.562,11.562,0,0,1,6,1.48,9.6,9.6,0,0,1,3.765,3.788,9.937,9.937,0,0,1,1.248,4.745q0,2.242-1.291,2.917A8.207,8.207,0,0,1,170.5,29.537Zm-11.69-3.374h10.837a7.118,7.118,0,0,0-1.663-4.55,4.911,4.911,0,0,0-3.766-1.524,4.816,4.816,0,0,0-3.678,1.545A7.6,7.6,0,0,0,158.808,26.163Z" transform="translate(114 484)" fill="#3b3e48"/>
  </g>
</svg>
